{"title":"Puss In Boots (2011) TS NL subs DutchReleaseTeam [Avontuur&amp;A","uid":6793536,"size":737754007,"categoryP":"video","categoryS":"movies","magnet":"?xt=urn:btih:064847c029d45781ca594596811d6533115c8834&amp;dn=Puss+In+Boots+%282011%29+TS+NL+subs+DutchReleaseTeam+%5BAvontuur%26amp%3BA&amp;tr=udp%3A%2F%2Ftracker.openbittorrent.com%3A80&amp;tr=udp%3A%2F%2Fopen.demonii.com%3A1337&amp;tr=udp%3A%2F%2Ftracker.coppersurfer.tk%3A6969&amp;tr=udp%3A%2F%2Fexodus.desync.com%3A6969","seeders":3,"leechers":0,"uploader":"Koedje","files":-1,"time":1320359681,"description":"\n\n\nVerenigde Staten\nAvontuur / Animatie\n90 minuten\n\ngeregisseerd door Chris Miller (I)\nmet de stemmen van Antonio Banderas, Zach Galifianakis en Salma Hayek\n\nPuss in Boots, ÃƒÂ©ÃƒÂ©n van de meest geliefde personages uit het Shrek-universum, gaat over de hilarische en moedige avonturen van Puss (Antonio Banderas) wanneer hij samen met het meesterbrein Humpty Dumpty (Zach Galifianakis) en de straatkat Kitty (Salma Hayek) op zoek gaat naar de befaamde Gans met de Gouden Eieren.\n\n\nVertaald door Simply ReleaseS Toppers\nTokke en Suurtje\n\n\n\n\n\n\n\nScreenshots:\n &lt;a href=&quot;\nhttp://img507.imageshack.us/img507/7954/screenshot1h.jpg&quot; rel=&quot;nofollow&quot; target=&quot;_NEW&quot;&gt;\nhttp://img507.imageshack.us/img507/7954/screenshot1h.jpg&lt;/a&gt;\n &lt;a href=&quot;\nhttp://img97.imageshack.us/img97/559/screenshot2xbb.jpg&quot; rel=&quot;nofollow&quot; target=&quot;_NEW&quot;&gt;\nhttp://img97.imageshack.us/img97/559/screenshot2xbb.jpg&lt;/a&gt;\n &lt;a href=&quot;\nhttp://img20.imageshack.us/img20/16/screenshot3yd.jpg&quot; rel=&quot;nofollow&quot; target=&quot;_NEW&quot;&gt;\nhttp://img20.imageshack.us/img20/16/screenshot3yd.jpg&lt;/a&gt;\n &lt;a href=&quot;\nhttp://img88.imageshack.us/img88/8311/screenshot4ng.jpg&quot; rel=&quot;nofollow&quot; target=&quot;_NEW&quot;&gt;\nhttp://img88.imageshack.us/img88/8311/screenshot4ng.jpg&lt;/a&gt;\n\n\n\nINFO;\n\n\nVideo\nID                                       : 0\nFormat                                   : MPEG-4 Visual\nFormat profile                           : Advanced Simple@L5\nFormat settings, BVOP                    : 1\nFormat settings, QPel                    : No\nFormat settings, GMC                     : No warppoints\nFormat settings, Matrix                  : Custom\nCodec ID                                 : XVID\nCodec ID/Hint                            : XviD\nDuration                                 : 1h 20mn\nBit rate                                 : 1 080 Kbps\nWidth                                    : 720 pixels\nHeight                                   : 304 pixels\nDisplay aspect ratio                     : 2.35:1\nFrame rate                               : 25.000 fps\nColor space                              : YUV\nChroma subsampling                       : 4:2:0\nBit depth                                : 8 bits\nScan type                                : Progressive\nCompression mode                         : Lossy\nBits/(Pixel*Frame)                       : 0.197\nStream size                              : 624 MiB (89%)\nWriting library                          : XviD 64\n\nAudio\nID                                       : 1\nFormat                                   : MPEG Audio\nFormat version                           : Version 1\nFormat profile                           : Layer 3\nMode                                     : Joint stereo\nMode extension                           : MS Stereo\nCodec ID                                 : 55\nCodec ID/Hint                            : MP3\nDuration                                 : 1h 20mn\nBit rate mode                            : Variable\nBit rate                                 : 118 Kbps\nNominal bit rate                         : 128 Kbps\nChannel(s)                               : 2 channels\nSampling rate                            : 48.0 KHz\nCompression mode                         : Lossy\nStream size                              : 68.2 MiB (10%)\nAlignment                                : Aligned on interleaves\nInterleave, duration                     : 24 ms (0.60 video frame)\nInterleave, preload duration             : 533 ms\n\n\n\n &lt;a href=&quot;\nhttp://www.imdb.com/title/tt0448694/&quot; rel=&quot;nofollow&quot; target=&quot;_NEW&quot;&gt;\nhttp://www.imdb.com/title/tt0448694/&lt;/a&gt; &lt;a href=&quot;\nhttp://www.moviemeter.nl/film/75021&quot; rel=&quot;nofollow&quot; target=&quot;_NEW&quot;&gt;\nhttp://www.moviemeter.nl/film/75021&lt;/a&gt;\n\n\n\n\nDeze film wordt u aangeboden door het DutchReleaseTeam.\nVoor de reviews van de nieuwste films, muziek, series, games etc\nga dan eens naar http://www.hetmultimediacafe.be\n\nDutchReleaseteam = Hardcoded Dutch Subs","torrent":{"xt":"urn:btih:064847c029d45781ca594596811d6533115c8834","amp;dn":"Puss+In+Boots+%282011%29+TS+NL+subs+DutchReleaseTeam+%5BAvontuur%26amp%3BA","amp;tr":["udp%3A%2F%2Ftracker.openbittorrent.com%3A80","udp%3A%2F%2Fopen.demonii.com%3A1337","udp%3A%2F%2Ftracker.coppersurfer.tk%3A6969","udp%3A%2F%2Fexodus.desync.com%3A6969"],"infoHash":"064847c029d45781ca594596811d6533115c8834","infoHashBuffer":{"type":"Buffer","data":[6,72,71,192,41,212,87,129,202,89,69,150,129,29,101,51,17,92,136,52]},"announce":[],"urlList":[]}}